<svg xmlns="http://www.w3.org/2000/svg"
     x="0px" y="0px"
     viewBox="0 0 150 150" style="enable-background:new 0 0 150 150;">
    <g><path fill="#033944" d="M5.8,95.9V17.5h34v81.6c0,3.6,0.6,6.2,1.9,7.9c1.3,1.7,3.3,2.5,5.9,2.5c2.7,0,4.7-0.8,6-2.5
		c1.3-1.7,1.9-4.3,1.9-7.9V17.5h34.2v78.4c0,15.9-3.4,27.6-10.2,35c-6.8,7.4-17.4,11.1-32,11.1c-14.5,0-25.1-3.7-31.8-11.1
		C9.2,123.4,5.8,111.8,5.8,95.9z"/></g>
    <g><path fill="#033944" d="M109.6,139.6l-0.1-67.9l34.2-54v122H109.6z"/></g>
    <g><path fill="none" stroke="#05AECA" stroke-width="3" stroke-miterlimit="10" d="M30.6,115.9c6.4-6.3,15.7-5.5,20.8,2.2
		c1.6,2.5,3.3,3,5.9,2.9c11.1-0.2,22.3-0.3,33.4-0.2c3.2,0,5.3-0.5,7.4-3.6c3.6-5.3,9.5-7.2,15-5.4c5.4,1.8,8.7,5.6,9.3,11.4
		c0.6,5.5-2.3,10.8-7.5,13.7c-6,3.3-13.4,1.7-17.1-4.2c-1.7-2.7-3.6-3.6-6.8-3.6c-10.8,0.2-21.6,0.4-32.3,0.1c-3.7-0.1-6,1-8.4,4.1
		c-5.1,6.8-13.6,7.4-19.5,2C24.7,130.2,24.7,121.8,30.6,115.9z"/></g>
    <g><path fill="#05AECA" d="M142.7,29.9c-6.3,6.3-15.7,5.6-20.8-2.1c-1.6-2.5-3.3-2.9-5.9-2.9c-11.1,0.2-22.3,0.4-33.4,0.4
		c-3.2,0-5.3,0.6-7.4,3.6c-3.6,5.4-9.5,7.3-14.9,5.5c-5.4-1.8-8.7-5.6-9.4-11.4c-0.7-5.5,2.3-10.8,7.5-13.7c6-3.3,13.4-1.8,17.2,4.1
		c1.7,2.7,3.6,3.6,6.8,3.5c10.8-0.3,21.6-0.5,32.3-0.3c3.7,0.1,6-1.1,8.3-4.2c5.1-6.8,13.6-7.5,19.5-2.2
		C148.4,15.7,148.5,24.1,142.7,29.9z"/></g>
</svg>
